<svg width="16" height="14" viewBox="0 0 16 14" fill="none" xmlns="http://www.w3.org/2000/svg">
<path fill-rule="evenodd" clip-rule="evenodd" d="M6.40006 11.494H1.14923C0.804231 11.494 0.524231 11.214 0.524231 10.869C0.524231 10.524 0.804231 10.244 1.14923 10.244H6.40006C6.74506 10.244 7.02506 10.524 7.02506 10.869C7.02506 11.214 6.74506 11.494 6.40006 11.494" fill="#ECEBF6" fill-opacity="0.62"/>
<path fill-rule="evenodd" clip-rule="evenodd" d="M13.9924 3.417H8.74237C8.39737 3.417 8.11737 3.137 8.11737 2.792C8.11737 2.447 8.39737 2.167 8.74237 2.167H13.9924C14.3374 2.167 14.6174 2.447 14.6174 2.792C14.6174 3.137 14.3374 3.417 13.9924 3.417" fill="#ECEBF6" fill-opacity="0.62"/>
<mask id="mask0_3126_48" style="mask-type:luminance" maskUnits="userSpaceOnUse" x="0" y="0" width="6" height="6">
<path fill-rule="evenodd" clip-rule="evenodd" d="M0.5 0.167H5.68817V5.32667H0.5V0.167Z" fill="white"/>
</mask>
<g mask="url(#mask0_3126_48)">
<path fill-rule="evenodd" clip-rule="evenodd" d="M3.09401 1.41667C2.35318 1.41667 1.74985 2.01333 1.74985 2.7475C1.74985 3.48083 2.35318 4.07667 3.09401 4.07667C3.83568 4.07667 4.43818 3.48083 4.43818 2.7475C4.43818 2.01333 3.83568 1.41667 3.09401 1.41667M3.09398 5.3266C1.66398 5.3266 0.499817 4.16994 0.499817 2.74744C0.499817 1.32494 1.66398 0.166603 3.09398 0.166603C4.52482 0.166603 5.68815 1.32494 5.68815 2.74744C5.68815 4.16994 4.52482 5.3266 3.09398 5.3266" fill="#ECEBF6" fill-opacity="0.62"/>
</g>
<path fill-rule="evenodd" clip-rule="evenodd" d="M12.4897 9.50667C11.7481 9.50667 11.1447 10.1033 11.1447 10.8367C11.1447 11.5708 11.7481 12.1667 12.4897 12.1667C13.2306 12.1667 13.8331 11.5708 13.8331 10.8367C13.8331 10.1033 13.2306 9.50667 12.4897 9.50667M12.4897 13.4167C11.0589 13.4167 9.89471 12.2592 9.89471 10.8367C9.89471 9.41417 11.0589 8.25667 12.4897 8.25667C13.9197 8.25667 15.083 9.41417 15.083 10.8367C15.083 12.2592 13.9197 13.4167 12.4897 13.4167" fill="#ECEBF6" fill-opacity="0.62"/>
</svg>
