<svg width="29" height="29" viewBox="0 0 29 29" fill="none" xmlns="http://www.w3.org/2000/svg">
<g filter="url(#filter0_b_1_2541)">
<rect width="29" height="29" rx="4.14286" fill="white" fill-opacity="0.21"/>
</g>
<path d="M11.4688 20.2138L11.4688 20.2138L11.463 20.2178C10.7767 20.6994 9.82918 20.2635 9.76347 19.4162C9.68623 18.4203 9.58334 16.5955 9.58335 13.942V13.8941V13.8941C9.58334 12.8407 9.58391 11.9229 9.65906 11.1571C9.73525 10.3807 9.89339 9.68549 10.2606 9.11919C11.0284 7.93498 12.5074 7.59312 14.8311 7.58355C17.1575 7.57397 18.6386 7.91421 19.4072 9.10593C19.7739 9.67442 19.9319 10.3729 20.008 11.1519C20.0832 11.9207 20.0837 12.8408 20.0837 13.8946V13.942C20.0837 16.5955 19.9808 18.4203 19.9036 19.4163C19.8379 20.2635 18.8903 20.6994 18.204 20.2178L18.204 20.2178L18.1983 20.2138C17.5962 19.802 17.0391 19.3587 16.6049 19.0131L16.5971 19.0069C16.3998 18.8498 16.2208 18.7072 16.0803 18.6031C15.8167 18.4077 15.5967 18.2743 15.3928 18.1922C15.1708 18.1029 14.9916 18.0837 14.8335 18.0837C14.6754 18.0837 14.4962 18.1029 14.2743 18.1922C14.0704 18.2743 13.8503 18.4077 13.5868 18.6031L13.9341 19.0717L13.5868 18.6031C13.4463 18.7072 13.2672 18.8498 13.0699 19.0069L13.0621 19.0131C12.628 19.3587 12.0708 19.802 11.4688 20.2138Z" stroke="#0C0B2F" stroke-width="1.16671" stroke-linecap="round" stroke-linejoin="round"/>
<path d="M16.0002 9.91904C16.5836 9.91904 16.8753 9.91683 17.3128 10.3532C17.7503 10.7896 17.7503 12.2502 17.7503 12.8335" stroke="#0C0B2F" stroke-width="1.16671" stroke-linecap="round" stroke-linejoin="round"/>
<defs>
<filter id="filter0_b_1_2541" x="-11.49" y="-11.49" width="51.98" height="51.98" filterUnits="userSpaceOnUse" color-interpolation-filters="sRGB">
<feFlood flood-opacity="0" result="BackgroundImageFix"/>
<feGaussianBlur in="BackgroundImageFix" stdDeviation="5.745"/>
<feComposite in2="SourceAlpha" operator="in" result="effect1_backgroundBlur_1_2541"/>
<feBlend mode="normal" in="SourceGraphic" in2="effect1_backgroundBlur_1_2541" result="shape"/>
</filter>
</defs>
</svg>
