<svg width="46" height="46" viewBox="0 0 46 46" fill="none" xmlns="http://www.w3.org/2000/svg">
<circle cx="23" cy="23" r="23" fill="#201E43"/>
<path d="M20.0527 30.8947C21.2369 31.9473 23.6054 31.9473 24.7896 30.8947" stroke="#ECEBF6" stroke-width="1.57895" stroke-linecap="round" stroke-linejoin="round"/>
<path fill-rule="evenodd" clip-rule="evenodd" d="M23.2095 15.1463C23.2102 15.1327 23.2105 15.119 23.2105 15.1053C23.2105 14.6693 22.857 14.3158 22.421 14.3158C21.985 14.3158 21.6316 14.6693 21.6316 15.1053C21.6316 15.1191 21.6319 15.1328 21.6326 15.1464C18.9898 15.5274 16.503 18.4996 16.8948 21.8158C17.0978 22.8305 16.4587 23.3682 15.7936 23.9277C15.1651 24.4565 14.5133 25.0049 14.5266 25.994C14.5266 27.3803 15.3158 28.1315 16.475 28.5041C16.475 28.5041 18.598 29.3158 22.4212 29.3158C26.2444 29.3158 28.3674 28.5041 28.3674 28.5041C29.5265 28.1315 30.316 27.3421 30.3158 25.994C30.3157 24.9964 29.6643 24.4478 29.0393 23.9214C28.3771 23.3638 27.7445 22.8311 27.9476 21.8158C28.018 21.2195 27.9954 20.6345 27.8956 20.0735C27.4864 20.4191 26.9585 20.6284 26.3817 20.6316C26.4167 20.9427 26.4192 21.2606 26.3851 21.581C26.2286 22.4559 26.4162 23.2194 26.8143 23.8527C27.1598 24.4022 27.6455 24.8116 27.943 25.0624L27.9655 25.0814C28.7132 25.7121 28.7369 25.8102 28.7369 25.9942C28.7369 26.3385 28.6448 26.5059 28.5613 26.6066C28.4606 26.7278 28.2622 26.8794 27.8842 27.0009L27.8435 27.014L27.8094 27.027L27.8069 27.0279C27.8 27.0304 27.785 27.0358 27.7621 27.0435C27.7163 27.059 27.6388 27.0843 27.5305 27.1161C27.3138 27.1798 26.9737 27.27 26.5166 27.362C25.6027 27.5458 24.2206 27.7368 22.4212 27.7368C20.6218 27.7368 19.2397 27.5458 18.3258 27.362C17.8688 27.27 17.5286 27.1798 17.3119 27.1161C17.2036 27.0843 17.1261 27.059 17.0803 27.0435C17.0574 27.0358 17.0424 27.0304 17.0355 27.0279L17.033 27.027L16.9989 27.014L16.9582 27.0009C16.5624 26.8737 16.3689 26.7253 16.2754 26.614C16.2024 26.527 16.1055 26.366 16.1055 25.994V25.9834L16.1054 25.9728C16.1033 25.8157 16.1072 25.7283 16.8659 25.089L16.8887 25.0698C17.1877 24.818 17.6747 24.4079 18.0219 23.8589C18.4219 23.2265 18.6146 22.4608 18.4573 21.5811C18.3213 20.3036 18.7669 19.0678 19.5397 18.1365C20.3387 17.1735 21.3556 16.6842 22.1994 16.6842H22.643C23.1452 16.6842 23.7087 16.8575 24.2511 17.2008C24.4991 16.7074 24.9145 16.3127 25.4228 16.0911C24.744 15.5916 23.9834 15.2578 23.2095 15.1463Z" fill="#ECEBF6"/>
<circle cx="26.3685" cy="18.2632" r="1.57895" fill="#9E90EE"/>
</svg>
