<svg width="34" height="18" viewBox="0 0 34 18" fill="none" xmlns="http://www.w3.org/2000/svg">
<rect width="33.354" height="17.916" rx="8.95798" fill="#05CD99" fill-opacity="0.11"/>
<path d="M10.0913 5.98958H7.72433V12.5127H8.59097V10.183H10.0913C11.2934 10.183 12.1973 9.26979 12.1973 8.08631C12.1973 6.8935 11.2934 5.98958 10.0913 5.98958ZM10.0913 9.37229H8.59097V6.80032H10.0913C10.8088 6.80032 11.34 7.3408 11.34 8.08631C11.34 8.82249 10.8088 9.37229 10.0913 9.37229ZM17.0882 12.5127H18.0481L16.5105 9.90346C17.2932 9.6239 17.8617 8.86908 17.8617 8.01176C17.8617 6.8935 16.9484 5.98958 15.8302 5.98958H13.2209V12.5127H14.0876V10.0153H15.6252L17.0882 12.5127ZM14.0876 6.80032H15.8302C16.4732 6.80032 16.995 7.3408 16.995 8.01176C16.995 8.68271 16.4732 9.23251 15.8302 9.23251H14.0876V6.80032ZM21.9191 12.6339C23.8108 12.6339 25.3018 11.1242 25.3018 9.25115C25.3018 7.36876 23.8108 5.86844 21.9191 5.86844C20.0274 5.86844 18.5457 7.36876 18.5457 9.25115C18.5457 11.1242 20.0274 12.6339 21.9191 12.6339ZM21.9191 11.7859C20.4933 11.7859 19.403 10.6769 19.403 9.25115C19.403 7.81606 20.4933 6.70713 21.9191 6.70713C23.3448 6.70713 24.4351 7.81606 24.4351 9.25115C24.4351 10.6769 23.3448 11.7859 21.9191 11.7859Z" fill="#05CD99"/>
</svg>
